<svg xmlns="http://www.w3.org/2000/svg" width="16.018" height="16.005">
    <g fill="#2e3436">
        <path d="M8.017 0a1 1 0 100 2 5.99 5.99 0 015.858 4.701 5.99 5.99 0 01-3.323 6.737 5.99 5.99 0 01-7.294-1.786 5.991 5.991 0 01.164-7.51 1 1 0 10-1.534-1.284 8.008 8.008 0 00-.216 10.011 8.008 8.008 0 009.726 2.381 8.01 8.01 0 004.43-8.982A8.009 8.009 0 008.018 0z" style="line-height:normal;font-variant-ligatures:normal;font-variant-position:normal;font-variant-caps:normal;font-variant-numeric:normal;font-variant-alternates:normal;font-feature-settings:normal;text-indent:0;text-align:start;text-decoration-line:none;text-decoration-style:solid;text-decoration-color:#000;text-transform:none;text-orientation:mixed;white-space:normal;shape-padding:0;isolation:auto;mix-blend-mode:normal;solid-color:#000;solid-opacity:1;marker:none" color="#000" font-weight="400" font-family="sans-serif" overflow="visible"/>
        <path d="M7.017 1v3h2V1z" style="line-height:normal;font-variant-ligatures:normal;font-variant-position:normal;font-variant-caps:normal;font-variant-numeric:normal;font-variant-alternates:normal;font-feature-settings:normal;text-indent:0;text-align:start;text-decoration-line:none;text-decoration-style:solid;text-decoration-color:#000;text-transform:none;text-orientation:mixed;white-space:normal;shape-padding:0;isolation:auto;mix-blend-mode:normal;solid-color:#000;solid-opacity:1" color="#000" font-weight="400" font-family="sans-serif" overflow="visible" fill-rule="evenodd"/>
        <path d="M9.432 6.586a2 2 0 00-2.829 0 2 2 0 000 2.828 2 2 0 002.829 0 2 2 0 000-2.828z"/>
        <path d="M5.008 3.99a1 1 0 00-.698 1.717l2.828 2.828a1 1 0 101.414-1.414L5.724 4.293a1 1 0 00-.716-.303z" style="line-height:normal;font-variant-ligatures:normal;font-variant-position:normal;font-variant-caps:normal;font-variant-numeric:normal;font-variant-alternates:normal;font-feature-settings:normal;text-indent:0;text-align:start;text-decoration-line:none;text-decoration-style:solid;text-decoration-color:#000;text-transform:none;text-orientation:mixed;white-space:normal;shape-padding:0;isolation:auto;mix-blend-mode:normal;solid-color:#000;solid-opacity:1" color="#000" font-weight="400" font-family="sans-serif" overflow="visible" fill-rule="evenodd"/>
    </g>
</svg>
